<svg id="heart_1_" data-name="heart (1)" xmlns="http://www.w3.org/2000/svg" width="39.801" height="35.409" viewBox="0 0 39.801 35.409">
  <path id="Caminho_5" data-name="Caminho 5" d="M39.8,11.961c0,3.365-1.254,6.447-3.947,9.7a84.139,84.139,0,0,1-9.881,9.275c-1.37,1.167-2.923,2.491-4.534,3.9a2.336,2.336,0,0,1-1.525.578H19.9a2.334,2.334,0,0,1-1.539-.578c-1.608-1.406-3.158-2.728-4.526-3.893l-.007-.005a84.169,84.169,0,0,1-9.882-9.275C1.254,18.408,0,15.326,0,11.961a12.44,12.44,0,0,1,3.157-8.5A10.7,10.7,0,0,1,11.119,0a10.012,10.012,0,0,1,6.254,2.158A12.771,12.771,0,0,1,19.9,4.8l.014-.019a12.766,12.766,0,0,1,2.515-2.622A10.011,10.011,0,0,1,28.682,0a10.7,10.7,0,0,1,7.961,3.465A12.439,12.439,0,0,1,39.8,11.961Zm0,0" fill="#ea1919"/>
  <path id="Caminho_6" data-name="Caminho 6" d="M276.066,11.961c0,3.365-1.254,6.447-3.947,9.7a84.137,84.137,0,0,1-9.881,9.275c-1.37,1.167-2.923,2.491-4.534,3.9a2.336,2.336,0,0,1-1.525.578V4.78a12.766,12.766,0,0,1,2.515-2.622A10.011,10.011,0,0,1,264.947,0a10.7,10.7,0,0,1,7.961,3.465A12.439,12.439,0,0,1,276.066,11.961Zm0,0" transform="translate(-236.265)" fill="#ea1919"/>
</svg>
