<svg xmlns="http://www.w3.org/2000/svg" width="39.801" height="35.41" viewBox="0 0 39.801 35.41">
  <path id="heart" d="M19.9,35.41a2.334,2.334,0,0,1-1.539-.578c-1.608-1.406-3.158-2.727-4.526-3.893l-.007-.006a84.172,84.172,0,0,1-9.882-9.275C1.254,18.408,0,15.327,0,11.961a12.44,12.44,0,0,1,3.157-8.5A10.7,10.7,0,0,1,11.119,0a10.011,10.011,0,0,1,6.253,2.159A12.794,12.794,0,0,1,19.9,4.8a12.8,12.8,0,0,1,2.529-2.64A10.011,10.011,0,0,1,28.682,0a10.7,10.7,0,0,1,7.961,3.465,12.439,12.439,0,0,1,3.157,8.5c0,3.366-1.254,6.447-3.947,9.7a84.153,84.153,0,0,1-9.881,9.275c-1.37,1.167-2.923,2.491-4.534,3.9A2.336,2.336,0,0,1,19.9,35.41ZM11.119,2.331A8.4,8.4,0,0,0,4.871,5.046a10.119,10.119,0,0,0-2.54,6.916c0,2.831,1.052,5.363,3.411,8.209a82.828,82.828,0,0,0,9.6,8.988l.007.006c1.373,1.17,2.929,2.5,4.549,3.913,1.629-1.419,3.188-2.747,4.564-3.919a82.843,82.843,0,0,0,9.6-8.988c2.359-2.846,3.411-5.378,3.411-8.209a10.119,10.119,0,0,0-2.54-6.916,8.4,8.4,0,0,0-6.247-2.714A7.732,7.732,0,0,0,23.855,4a11.313,11.313,0,0,0-2.69,3.113,1.472,1.472,0,0,1-2.528,0A11.3,11.3,0,0,0,15.946,4,7.732,7.732,0,0,0,11.119,2.331Zm0,0" transform="translate(0 0)"/>
</svg>
